<svg xmlns="http://www.w3.org/2000/svg" viewBox="0 0 149 22">
  <g fill="none" fill-rule="evenodd">
    <path fill="#233745" d="M3.06 15.74l2.6 2.77-2.93 3.12c-.18.19-.47.19-.65 0L.13 19.55a.51.51 0 010-.7l2.93-3.11zm9.41-4.5l-2.92 3.11-2.6-2.77.65-.7L.13 2.93a.51.51 0 010-.7L2.08.14c.18-.19.47-.19.65 0l9.74 10.4c.18.19.18.5 0 .7z"/>
    <path fill="#D9445E" d="M10.52.14l1.95 2.08c.18.2.18.5 0 .7L9.55 6.03l-2.6-2.77L9.87.14c.18-.19.47-.19.65 0zM5 10.9l7.47 7.97c.18.19.18.5 0 .69l-1.95 2.08c-.18.19-.47.19-.65 0L.13 11.23a.51.51 0 010-.7l2.93-3.11 2.6 2.77-.66.7z"/>
    <path fill="#233745" d="M33.04 3.6v14.57h-1.71c-.26 0-.47-.04-.64-.12a1.57 1.57 0 01-.52-.44l-6.7-8.69a12.7 12.7 0 01.06 1.44v7.81h-2.9V3.6h1.73c.15 0 .27 0 .36.02.1.01.19.04.27.07.08.04.15.1.22.16s.16.15.25.27l6.76 8.75a12.35 12.35 0 01-.09-1.56V3.6h2.91zm5.44 2.6v3.4h4.47v2.5h-4.47v3.47h5.84v2.6h-9.16V3.6h9.16v2.6h-5.84zm16.44 9.27v2.7h-8.57V3.6h3.3v11.87h5.27zm9.75-8.91c-.1.16-.2.28-.3.36a.68.68 0 01-.42.12 1 1 0 01-.48-.15l-.59-.32a4.8 4.8 0 00-.75-.33c-.28-.1-.6-.14-.95-.14-.62 0-1.08.13-1.38.4-.3.27-.46.64-.46 1.1 0 .3.1.54.28.73.18.2.42.36.71.5.3.14.64.27 1.02.38.38.12.77.25 1.16.4.4.14.8.3 1.17.5a3.46 3.46 0 011.73 1.84c.19.43.28.94.28 1.55 0 .68-.12 1.3-.34 1.9a4.44 4.44 0 01-2.6 2.56 6.77 6.77 0 01-3.51.24 7.88 7.88 0 01-2.54-1c-.38-.24-.71-.5-.99-.79l.98-1.58c.07-.11.18-.2.3-.28a.79.79 0 01.42-.12c.2 0 .4.07.59.2l.67.41c.25.16.54.3.87.42.32.13.7.2 1.15.2.6 0 1.06-.14 1.4-.41.33-.27.5-.7.5-1.29 0-.34-.1-.62-.28-.83a2.11 2.11 0 00-.72-.53 6.5 6.5 0 00-1-.37c-.39-.1-.77-.22-1.17-.35-.4-.13-.78-.3-1.16-.48a3.52 3.52 0 01-1.73-1.91 4.71 4.71 0 01.05-3.32c.21-.52.53-.99.95-1.4.41-.4.92-.72 1.53-.97.6-.24 1.3-.36 2.08-.36a7.61 7.61 0 012.45.41c.37.14.72.3 1.04.5.32.18.6.4.86.64l-.82 1.57zm16.71 4.32a8 8 0 01-.53 2.94 6.86 6.86 0 01-3.83 3.94c-.9.38-1.91.57-3.02.57-1.1 0-2.12-.19-3.03-.57a6.9 6.9 0 01-3.84-3.94 8 8 0 01-.53-2.94 8 8 0 01.53-2.94A6.94 6.94 0 0170.97 4 7.79 7.79 0 0174 3.44c1.1 0 2.11.19 3.02.57a6.96 6.96 0 013.83 3.94c.35.9.53 1.88.53 2.93zm-3.38 0c0-.72-.09-1.37-.27-1.95a4.15 4.15 0 00-.79-1.46 3.4 3.4 0 00-1.25-.92 4.23 4.23 0 00-1.7-.32c-.63 0-1.2.1-1.7.32-.5.21-.91.52-1.25.92-.35.4-.6.89-.79 1.46a6.45 6.45 0 00-.27 1.95c0 .73.09 1.38.27 1.96.18.57.44 1.06.79 1.46.34.4.76.7 1.26.92.5.2 1.06.31 1.7.31.63 0 1.2-.1 1.69-.31.5-.21.91-.52 1.25-.92.34-.4.6-.89.79-1.46.18-.58.27-1.23.27-1.96zM95.1 3.6v14.57H93.4c-.26 0-.47-.04-.64-.12a1.57 1.57 0 01-.52-.44l-6.7-8.69a12.7 12.7 0 01.07 1.44v7.81h-2.91V3.6h1.73c.15 0 .27 0 .37.02.1.01.18.04.26.07.08.04.15.1.22.16.08.06.16.15.25.27l6.76 8.75a12.35 12.35 0 01-.08-1.56V3.6h2.9z"/>
    <path fill="#3E5667" fill-rule="nonzero" d="M110.73 15.54c.1 0 .18.03.25.1l.67.74a4.8 4.8 0 01-1.72 1.3 5.9 5.9 0 01-2.43.45 5.7 5.7 0 01-2.26-.43 4.98 4.98 0 01-2.84-3.07 6.92 6.92 0 01-.4-2.37c0-.87.15-1.66.42-2.38s.66-1.34 1.16-1.86c.5-.51 1.09-.92 1.78-1.2a5.9 5.9 0 012.29-.44 5.57 5.57 0 013.83 1.47l-.56.79a.48.48 0 01-.14.14.39.39 0 01-.22.06.54.54 0 01-.28-.1l-.08-.05a5.23 5.23 0 00-1.35-.68c-.33-.1-.73-.15-1.22-.15a4 4 0 00-1.57.3c-.47.2-.88.48-1.22.86-.35.38-.61.84-.8 1.38a5.64 5.64 0 00-.29 1.86c0 .7.1 1.32.3 1.86.2.54.47 1 .81 1.38.35.38.76.67 1.23.87.47.2.97.3 1.52.3a6 6 0 00.89-.07 3.83 3.83 0 001.36-.48c.2-.13.39-.28.58-.46a.64.64 0 01.14-.09c.04-.02.1-.03.15-.03zm5.78-5.8c.6 0 1.14.1 1.62.3.48.2.9.47 1.23.84.34.36.6.8.78 1.32.19.51.28 1.09.28 1.73 0 .64-.1 1.22-.28 1.73a3.4 3.4 0 01-2.01 2.16c-.48.2-1.02.3-1.62.3-.6 0-1.14-.1-1.63-.3a3.44 3.44 0 01-2.02-2.16 5.15 5.15 0 01-.28-1.73c0-.64.1-1.22.28-1.73.18-.52.45-.96.79-1.32.34-.37.75-.65 1.23-.84.49-.2 1.03-.3 1.63-.3zm0 7.16c.77 0 1.34-.26 1.72-.78.38-.52.57-1.25.57-2.18 0-.94-.19-1.67-.57-2.2-.38-.51-.95-.77-1.72-.77-.78 0-1.36.26-1.74.78a3.64 3.64 0 00-.57 2.19c0 .93.2 1.66.57 2.18.38.52.96.78 1.74.78zm6.18 1.1v-6.85l-.85-.1a.72.72 0 01-.3-.13c-.08-.07-.12-.15-.12-.27V10h1.27v-.6c0-.47.06-.89.2-1.25a2.42 2.42 0 011.47-1.5 3.35 3.35 0 012.2-.03l-.04.79c0 .06-.03.11-.06.15a.34.34 0 01-.15.07c-.06.02-.14.03-.23.03h-.28c-.24 0-.46.03-.66.1-.2.05-.36.15-.5.29-.14.14-.25.32-.32.55-.07.22-.11.5-.11.84V10h3.55v-.83c0-.47.07-.88.2-1.24s.32-.67.57-.93c.25-.25.55-.44.9-.57a3.38 3.38 0 012.2-.04l-.04.79c0 .07-.02.12-.06.15a.31.31 0 01-.15.08l-.22.03h-.29c-.24 0-.46.03-.65.09-.2.06-.37.16-.5.3-.15.13-.25.32-.33.54-.07.23-.11.51-.11.85V10h2.28v1.14h-2.23V18h-1.57v-6.86h-3.5V18h-1.57zm15.56-4.97c0-.3-.05-.6-.13-.85a1.94 1.94 0 00-.4-.68c-.16-.2-.37-.35-.62-.45-.24-.1-.52-.16-.84-.16-.66 0-1.18.19-1.55.57-.38.37-.62.9-.72 1.57h4.26zm1.29 3.81c-.2.22-.42.42-.67.58-.25.16-.52.3-.8.4a4.85 4.85 0 01-1.77.3c-.56 0-1.07-.1-1.55-.3a3.46 3.46 0 01-2.06-2.18 5.5 5.5 0 01-.03-3.45 3.49 3.49 0 011.96-2.13c.48-.21 1.01-.32 1.6-.32.5 0 .96.09 1.38.25a3.05 3.05 0 011.8 1.85c.17.45.26.97.26 1.55 0 .24-.03.4-.08.49-.06.08-.16.12-.3.12h-5.33c.02.49.09.9.21 1.27.12.36.3.66.5.9.22.24.48.42.78.53a3 3 0 001.9.06 4.36 4.36 0 001.12-.52.64.64 0 01.33-.12c.13 0 .23.05.3.14l.45.58zm7.18-3.8c0-.32-.04-.6-.13-.86a1.94 1.94 0 00-.39-.68c-.17-.2-.38-.35-.62-.45-.25-.1-.53-.16-.85-.16-.66 0-1.17.19-1.55.57-.38.37-.61.9-.72 1.57h4.26zm1.29 3.8c-.2.22-.42.42-.67.58-.25.16-.51.3-.8.4a4.85 4.85 0 01-1.76.3c-.56 0-1.08-.1-1.56-.3a3.46 3.46 0 01-2.06-2.18 5.5 5.5 0 01-.02-3.45 3.49 3.49 0 011.96-2.13c.47-.21 1-.32 1.6-.32.5 0 .95.09 1.37.25a3.05 3.05 0 011.8 1.85c.17.45.26.97.26 1.55 0 .24-.03.4-.08.49-.06.08-.15.12-.3.12h-5.33c.02.49.09.9.21 1.27.12.36.3.66.51.9.22.24.47.42.77.53a3 3 0 001.9.06 4.36 4.36 0 00.99-.44l.13-.08a.64.64 0 01.33-.12c.13 0 .23.05.3.14l.45.58z"/>
  </g>
</svg>
